# Created by 3DAce v2.72


g
v -1.000000 1.000000 1.000000
v -1.000000 1.000000 -1.000000
v -1.000000 -1.000000 1.000000
v -1.000000 -1.000000 -1.000000
v -0.900000 1.000000 1.000000
v -0.900000 1.000000 -1.000000
v -0.900000 -1.000000 1.000000
v -0.900000 -1.000000 -1.000000
v 1.000000 1.000000 1.000000
v -1.000000 1.000000 1.000000
v 1.000000 -1.000000 1.000000
v -1.000000 -1.000000 1.000000
v 1.000000 1.000000 0.900000
v -1.000000 1.000000 0.900000
v 1.000000 -1.000000 0.900000
v -1.000000 -1.000000 0.900000
v 1.000000 1.000000 -1.000000
v 1.000000 1.000000 1.000000
v 1.000000 -1.000000 -1.000000
v 1.000000 -1.000000 1.000000
v 0.900000 1.000000 -1.000000
v 0.900000 1.000000 1.000000
v 0.900000 -1.000000 -1.000000
v 0.900000 -1.000000 1.000000
v -0.980100 -0.850000 0.980100
v 0.980100 -0.850000 0.980100
v -0.980100 -0.850000 -0.980100
v 0.980100 -0.850000 -0.980100
v -0.980100 -0.950000 0.980100
v 0.980100 -0.950000 0.980100
v -0.980100 -0.950000 -0.980100
v 0.980100 -0.950000 -0.980100
v -1.000000 1.000000 -1.000000
v 1.000000 1.000000 -1.000000
v -1.000000 -1.000000 -1.000000
v 1.000000 -1.000000 -1.000000
v -1.000000 1.000000 -0.900000
v 1.000000 1.000000 -0.900000
v -1.000000 -1.000000 -0.900000
v 1.000000 -1.000000 -0.900000
# 40 vertices

vt 1.000000 1.000000
vt 1.000000 0.000000
vt 1.000000 1.000000
vt 1.000000 1.000000
vt 1.000000 0.000000
vt 1.000000 0.000000
vt 1.000000 1.000000
vt 1.000000 0.000000
vt 0.950000 1.000000
vt 1.000000 1.000000
vt 0.950000 1.000000
vt 0.950000 1.000000
vt 1.000000 1.000000
vt 1.000000 1.000000
vt 0.950000 1.000000
vt 1.000000 1.000000
vt 0.950000 0.000000
vt 0.950000 1.000000
vt 0.950000 0.000000
vt 0.950000 0.000000
vt 0.950000 1.000000
vt 0.950000 1.000000
vt 0.950000 0.000000
vt 0.950000 1.000000
vt 1.000000 0.000000
vt 0.950000 0.000000
vt 1.000000 0.000000
vt 1.000000 0.000000
vt 0.950000 0.000000
vt 0.950000 0.000000
vt 1.000000 0.000000
vt 0.950000 0.000000
vt 1.000000 1.000000
vt 0.950000 1.000000
vt 1.000000 0.000000
vt 1.000000 1.000000
vt 0.950000 1.000000
vt 0.950000 0.000000
vt 1.000000 0.000000
vt 0.950000 1.000000
vt 1.000000 1.000000
vt 1.000000 0.000000
vt 0.950000 1.000000
vt 1.000000 1.000000
vt 1.000000 0.000000
vt 0.950000 0.000000
vt 0.950000 1.000000
vt 1.000000 0.000000
vt -0.000000 1.000000
vt 1.000000 1.000000
vt -0.000000 1.000000
vt -0.000000 1.000000
vt 1.000000 1.000000
vt 1.000000 1.000000
vt -0.000000 1.000000
vt 1.000000 1.000000
vt -0.000000 0.950000
vt -0.000000 1.000000
vt -0.000000 0.950000
vt -0.000000 0.950000
vt -0.000000 1.000000
vt -0.000000 1.000000
vt -0.000000 0.950000
vt -0.000000 1.000000
vt 1.000000 0.950000
vt -0.000000 0.950000
vt 1.000000 0.950000
vt 1.000000 0.950000
vt -0.000000 0.950000
vt -0.000000 0.950000
vt 1.000000 0.950000
vt -0.000000 0.950000
vt 1.000000 1.000000
vt 1.000000 0.950000
vt 1.000000 1.000000
vt 1.000000 1.000000
vt 1.000000 0.950000
vt 1.000000 0.950000
vt 1.000000 1.000000
vt 1.000000 0.950000
vt -0.000000 1.000000
vt -0.000000 0.950000
vt 1.000000 1.000000
vt -0.000000 1.000000
vt -0.000000 0.950000
vt 1.000000 0.950000
vt 1.000000 1.000000
vt -0.000000 0.950000
vt -0.000000 1.000000
vt 1.000000 1.000000
vt -0.000000 0.950000
vt -0.000000 1.000000
vt 1.000000 1.000000
vt 1.000000 0.950000
vt -0.000000 0.950000
vt 1.000000 1.000000
vt 0.000000 0.000000
vt -0.000000 1.000000
vt 0.000000 -0.000000
vt 0.000000 0.000000
vt -0.000000 1.000000
vt -0.000000 1.000000
vt 0.000000 -0.000000
vt -0.000000 1.000000
vt 0.050000 0.000000
vt 0.000000 0.000000
vt 0.050000 -0.000000
vt 0.050000 0.000000
vt 0.000000 0.000000
vt 0.000000 -0.000000
vt 0.050000 -0.000000
vt 0.000000 0.000000
vt 0.050000 1.000000
vt 0.050000 0.000000
vt 0.050000 1.000000
vt 0.050000 1.000000
vt 0.050000 0.000000
vt 0.050000 -0.000000
vt 0.050000 1.000000
vt 0.050000 0.000000
vt -0.000000 1.000000
vt 0.050000 1.000000
vt -0.000000 1.000000
vt -0.000000 1.000000
vt 0.050000 1.000000
vt 0.050000 1.000000
vt -0.000000 1.000000
vt 0.050000 1.000000
vt 0.000000 0.000000
vt 0.050000 0.000000
vt -0.000000 1.000000
vt 0.000000 0.000000
vt 0.050000 0.000000
vt 0.050000 1.000000
vt -0.000000 1.000000
vt 0.050000 0.000000
vt 0.000000 -0.000000
vt -0.000000 1.000000
vt 0.050000 -0.000000
vt 0.000000 -0.000000
vt -0.000000 1.000000
vt 0.050000 1.000000
vt 0.050000 -0.000000
vt -0.000000 1.000000
vt 0.990050 0.990050
vt 0.009950 0.990050
vt 0.990050 0.009950
vt 0.990050 0.990050
vt 0.009950 0.990050
vt 0.009950 0.009950
vt 0.990050 0.009950
vt 0.009950 0.990050
vt 0.990050 0.990050
vt 0.990050 0.990050
vt 0.990050 0.009950
vt 0.990050 0.990050
vt 0.990050 0.990050
vt 0.990050 0.009950
vt 0.990050 0.009950
vt 0.990050 0.990050
vt 0.009950 0.990050
vt 0.990050 0.990050
vt 0.009950 0.009950
vt 0.009950 0.990050
vt 0.990050 0.990050
vt 0.990050 0.009950
vt 0.009950 0.009950
vt 0.990050 0.990050
vt 0.009950 0.990050
vt 0.009950 0.990050
vt 0.009950 0.009950
vt 0.009950 0.990050
vt 0.009950 0.990050
vt 0.009950 0.009950
vt 0.009950 0.009950
vt 0.009950 0.990050
vt 0.990050 0.990050
vt 0.990050 0.990050
vt 0.009950 0.990050
vt 0.990050 0.990050
vt 0.990050 0.990050
vt 0.009950 0.990050
vt 0.009950 0.990050
vt 0.990050 0.990050
vt 0.990050 0.009950
vt 0.009950 0.009950
vt 0.990050 0.009950
vt 0.990050 0.009950
vt 0.009950 0.009950
vt 0.009950 0.009950
vt 0.990050 0.009950
vt 0.009950 0.009950
vt 1.000000 0.000000
vt 0.000000 0.000000
vt 1.000000 0.000000
vt 1.000000 0.000000
vt 0.000000 0.000000
vt 0.000000 -0.000000
vt 1.000000 0.000000
vt 0.000000 0.000000
vt 1.000000 0.050000
vt 1.000000 0.000000
vt 1.000000 0.050000
vt 1.000000 0.050000
vt 1.000000 0.000000
vt 1.000000 0.000000
vt 1.000000 0.050000
vt 1.000000 0.000000
vt 0.000000 0.050000
vt 1.000000 0.050000
vt 0.000000 0.050000
vt 0.000000 0.050000
vt 1.000000 0.050000
vt 1.000000 0.050000
vt 0.000000 0.050000
vt 1.000000 0.050000
vt 0.000000 0.000000
vt 0.000000 0.050000
vt 0.000000 -0.000000
vt 0.000000 0.000000
vt 0.000000 0.050000
vt 0.000000 0.050000
vt 0.000000 -0.000000
vt 0.000000 0.050000
vt 1.000000 0.000000
vt 1.000000 0.050000
vt 0.000000 0.000000
vt 1.000000 0.000000
vt 1.000000 0.050000
vt 0.000000 0.050000
vt 0.000000 0.000000
vt 1.000000 0.050000
vt 1.000000 0.000000
vt 0.000000 -0.000000
vt 1.000000 0.050000
vt 1.000000 0.000000
vt 0.000000 -0.000000
vt 0.000000 0.050000
vt 1.000000 0.050000
vt 0.000000 -0.000000
# 240 texture vertices

vn -1.000000 0.000000 0.000000
vn -1.000000 0.000000 0.000000
vn -1.000000 0.000000 0.000000
vn -1.000000 0.000000 0.000000
vn -1.000000 0.000000 0.000000
vn -1.000000 0.000000 0.000000
vn -1.000000 0.000000 0.000000
vn -1.000000 0.000000 0.000000
vn 0.000000 -0.000000 1.000000
vn 0.000000 -0.000000 1.000000
vn 0.000000 -0.000000 1.000000
vn 0.000000 -0.000000 1.000000
vn 0.000000 -0.000000 1.000000
vn 0.000000 -0.000000 1.000000
vn 0.000000 -0.000000 1.000000
vn 0.000000 -0.000000 1.000000
vn 1.000000 -0.000000 0.000000
vn 1.000000 0.000000 0.000000
vn 1.000000 0.000000 0.000000
vn 1.000000 -0.000000 0.000000
vn 1.000000 0.000000 0.000000
vn 1.000000 0.000000 0.000000
vn 1.000000 0.000000 0.000000
vn 1.000000 0.000000 0.000000
vn 0.000000 0.000000 -1.000000
vn 0.000000 0.000000 -1.000000
vn 0.000000 0.000000 -1.000000
vn 0.000000 0.000000 -1.000000
vn 0.000000 0.000000 -1.000000
vn 0.000000 0.000000 -1.000000
vn 0.000000 0.000000 -1.000000
vn 0.000000 0.000000 -1.000000
vn 0.000000 1.000000 -0.000000
vn 0.000000 1.000000 0.000000
vn 0.000000 1.000000 0.000000
vn 0.000000 1.000000 -0.000000
vn 0.000000 1.000000 0.000000
vn 0.000000 1.000000 0.000000
vn 0.000000 1.000000 0.000000
vn 0.000000 1.000000 0.000000
vn -0.000000 -1.000000 0.000000
vn -0.000000 -1.000000 0.000000
vn -0.000000 -1.000000 0.000000
vn -0.000000 -1.000000 0.000000
vn -0.000000 -1.000000 0.000000
vn -0.000000 -1.000000 -0.000000
vn -0.000000 -1.000000 0.000000
vn -0.000000 -1.000000 0.000000
vn 0.000000 0.000000 1.000000
vn 0.000000 0.000000 1.000000
vn 0.000000 0.000000 1.000000
vn 0.000000 0.000000 1.000000
vn 0.000000 0.000000 1.000000
vn 0.000000 -0.000000 1.000000
vn 0.000000 0.000000 1.000000
vn 0.000000 0.000000 1.000000
vn 1.000000 -0.000000 0.000000
vn 1.000000 0.000000 0.000000
vn 1.000000 0.000000 0.000000
vn 1.000000 -0.000000 0.000000
vn 1.000000 0.000000 0.000000
vn 1.000000 0.000000 0.000000
vn 1.000000 0.000000 0.000000
vn 1.000000 0.000000 0.000000
vn -0.000000 0.000000 -1.000000
vn -0.000000 0.000000 -1.000000
vn -0.000000 0.000000 -1.000000
vn -0.000000 0.000000 -1.000000
vn -0.000000 0.000000 -1.000000
vn -0.000000 0.000000 -1.000000
vn -0.000000 0.000000 -1.000000
vn -0.000000 0.000000 -1.000000
vn -1.000000 0.000000 0.000000
vn -1.000000 0.000000 0.000000
vn -1.000000 0.000000 0.000000
vn -1.000000 0.000000 0.000000
vn -1.000000 0.000000 0.000000
vn -1.000000 0.000000 0.000000
vn -1.000000 0.000000 0.000000
vn -1.000000 0.000000 0.000000
vn -0.000000 1.000000 0.000000
vn 0.000000 1.000000 0.000000
vn 0.000000 1.000000 0.000000
vn -0.000000 1.000000 0.000000
vn 0.000000 1.000000 0.000000
vn 0.000000 1.000000 0.000000
vn 0.000000 1.000000 0.000000
vn 0.000000 1.000000 0.000000
vn 0.000000 -1.000000 0.000000
vn 0.000000 -1.000000 0.000000
vn 0.000000 -1.000000 0.000000
vn 0.000000 -1.000000 0.000000
vn 0.000000 -1.000000 0.000000
vn 0.000000 -1.000000 0.000000
vn 0.000000 -1.000000 0.000000
vn 0.000000 -1.000000 0.000000
vn 1.000000 0.000000 -0.000000
vn 1.000000 0.000000 -0.000000
vn 1.000000 0.000000 -0.000000
vn 1.000000 0.000000 -0.000000
vn 1.000000 0.000000 -0.000000
vn 1.000000 0.000000 -0.000000
vn 1.000000 0.000000 -0.000000
vn 1.000000 0.000000 -0.000000
vn 0.000000 0.000000 -1.000000
vn 0.000000 0.000000 -1.000000
vn 0.000000 0.000000 -1.000000
vn 0.000000 0.000000 -1.000000
vn 0.000000 0.000000 -1.000000
vn 0.000000 0.000000 -1.000000
vn 0.000000 0.000000 -1.000000
vn 0.000000 0.000000 -1.000000
vn -1.000000 0.000000 0.000000
vn -1.000000 0.000000 0.000000
vn -1.000000 0.000000 0.000000
vn -1.000000 0.000000 0.000000
vn -1.000000 0.000000 0.000000
vn -1.000000 0.000000 0.000000
vn -1.000000 0.000000 0.000000
vn -1.000000 0.000000 0.000000
vn 0.000000 -0.000000 1.000000
vn 0.000000 -0.000000 1.000000
vn 0.000000 -0.000000 1.000000
vn 0.000000 -0.000000 1.000000
vn 0.000000 -0.000000 1.000000
vn 0.000000 -0.000000 1.000000
vn 0.000000 -0.000000 1.000000
vn 0.000000 -0.000000 1.000000
vn -0.000000 1.000000 0.000000
vn 0.000000 1.000000 0.000000
vn 0.000000 1.000000 0.000000
vn -0.000000 1.000000 0.000000
vn 0.000000 1.000000 0.000000
vn 0.000000 1.000000 0.000000
vn 0.000000 1.000000 0.000000
vn 0.000000 1.000000 0.000000
vn 0.000000 -1.000000 -0.000000
vn 0.000000 -1.000000 0.000000
vn 0.000000 -1.000000 0.000000
vn 0.000000 -1.000000 -0.000000
vn 0.000000 -1.000000 0.000000
vn 0.000000 -1.000000 0.000000
vn 0.000000 -1.000000 0.000000
vn 0.000000 -1.000000 0.000000
vn -0.000000 1.000000 0.000000
vn -0.000000 1.000000 0.000000
vn -0.000000 1.000000 0.000000
vn -0.000000 1.000000 0.000000
vn -0.000000 1.000000 0.000000
vn -0.000000 1.000000 0.000000
vn -0.000000 1.000000 0.000000
vn -0.000000 1.000000 0.000000
vn -1.000000 0.000001 0.000000
vn -1.000000 0.000000 0.000000
vn -1.000000 0.000000 0.000000
vn -1.000000 0.000001 0.000000
vn -1.000000 0.000000 0.000000
vn -1.000000 0.000000 0.000000
vn -1.000000 0.000000 0.000000
vn -1.000000 0.000000 0.000000
vn 0.000000 -1.000000 -0.000000
vn 0.000000 -1.000000 -0.000000
vn 0.000000 -1.000000 -0.000000
vn 0.000000 -1.000000 -0.000000
vn 0.000000 -1.000000 -0.000000
vn 0.000000 -1.000000 -0.000000
vn 0.000000 -1.000000 -0.000000
vn 0.000000 -1.000000 -0.000000
vn 1.000000 0.000000 -0.000000
vn 1.000000 0.000000 0.000000
vn 1.000000 0.000000 0.000000
vn 1.000000 0.000000 -0.000000
vn 1.000000 0.000000 0.000000
vn 1.000000 0.000000 0.000000
vn 1.000000 0.000000 0.000000
vn 1.000000 0.000000 0.000000
vn 0.000000 -0.000000 1.000000
vn 0.000000 0.000000 1.000000
vn 0.000000 0.000000 1.000000
vn 0.000000 -0.000000 1.000000
vn 0.000000 0.000000 1.000000
vn 0.000000 0.000000 1.000000
vn 0.000000 0.000000 1.000000
vn 0.000000 0.000000 1.000000
vn -0.000000 0.000000 -1.000000
vn 0.000000 0.000000 -1.000000
vn 0.000000 0.000000 -1.000000
vn -0.000000 0.000000 -1.000000
vn 0.000000 0.000000 -1.000000
vn 0.000000 0.000000 -1.000000
vn 0.000000 0.000000 -1.000000
vn 0.000000 0.000000 -1.000000
vn -0.000000 0.000000 -1.000000
vn -0.000000 0.000000 -1.000000
vn -0.000000 0.000000 -1.000000
vn -0.000000 0.000000 -1.000000
vn -0.000000 0.000000 -1.000000
vn -0.000000 0.000000 -1.000000
vn -0.000000 0.000000 -1.000000
vn -0.000000 0.000000 -1.000000
vn -1.000000 0.000000 0.000000
vn -1.000000 0.000000 0.000000
vn -1.000000 0.000000 0.000000
vn -1.000000 0.000000 0.000000
vn -1.000000 0.000000 0.000000
vn -1.000000 0.000000 0.000000
vn -1.000000 0.000000 0.000000
vn -1.000000 0.000000 0.000000
vn 0.000000 0.000000 1.000000
vn 0.000000 0.000000 1.000000
vn 0.000000 0.000000 1.000000
vn 0.000000 0.000000 1.000000
vn 0.000000 0.000000 1.000000
vn 0.000000 -0.000000 1.000000
vn 0.000000 0.000000 1.000000
vn 0.000000 0.000000 1.000000
vn 1.000000 -0.000000 0.000000
vn 1.000000 0.000000 0.000000
vn 1.000000 0.000000 0.000000
vn 1.000000 -0.000000 0.000000
vn 1.000000 0.000000 0.000000
vn 1.000000 0.000000 0.000000
vn 1.000000 0.000000 0.000000
vn 1.000000 0.000000 0.000000
vn 0.000000 1.000000 0.000000
vn 0.000000 1.000000 0.000000
vn 0.000000 1.000000 0.000000
vn 0.000000 1.000000 0.000000
vn 0.000000 1.000000 0.000000
vn 0.000000 1.000000 -0.000000
vn 0.000000 1.000000 0.000000
vn 0.000000 1.000000 0.000000
vn -0.000000 -1.000000 -0.000000
vn 0.000000 -1.000000 0.000000
vn 0.000000 -1.000000 0.000000
vn -0.000000 -1.000000 -0.000000
vn 0.000000 -1.000000 0.000000
vn 0.000000 -1.000000 0.000000
vn 0.000000 -1.000000 0.000000
vn 0.000000 -1.000000 0.000000
# 240 vertex normals

g mat_00
f 1/1/1 2/2/2 3/3/3
f 2/5/5 4/6/6 3/7/7
f 5/9/9 1/10/10 7/11/11
f 1/13/13 3/14/14 7/15/15
f 6/17/17 5/18/18 8/19/19
f 5/21/21 7/22/22 8/23/23
f 2/25/25 6/26/26 4/27/27
f 6/29/29 8/30/30 4/31/31
f 1/33/33 5/34/34 2/35/35
f 5/37/37 6/38/38 2/39/39
f 3/41/41 4/42/42 7/43/43
f 4/45/45 8/46/46 7/47/47
f 9/49/49 10/50/50 11/51/51
f 10/53/53 12/54/54 11/55/55
f 13/57/57 9/58/58 15/59/59
f 9/61/61 11/62/62 15/63/63
f 14/65/65 13/66/66 16/67/67
f 13/69/69 15/70/70 16/71/71
f 10/73/73 14/74/74 12/75/75
f 14/77/77 16/78/78 12/79/79
f 9/81/81 13/82/82 10/83/83
f 13/85/85 14/86/86 10/87/87
f 11/89/89 12/90/90 15/91/91
f 12/93/93 16/94/94 15/95/95
f 17/97/97 18/98/98 19/99/99
f 18/101/101 20/102/102 19/103/103
f 21/105/105 17/106/106 23/107/107
f 17/109/109 19/110/110 23/111/111
f 22/113/113 21/114/114 24/115/115
f 21/117/117 23/118/118 24/119/119
f 18/121/121 22/122/122 20/123/123
f 22/125/125 24/126/126 20/127/127
f 17/129/129 21/130/130 18/131/131
f 21/133/133 22/134/134 18/135/135
f 19/137/137 20/138/138 23/139/139
f 20/141/141 24/142/142 23/143/143
f 25/145/145 26/146/146 27/147/147
f 26/149/149 28/150/150 27/151/151
f 29/153/153 25/154/154 31/155/155
f 25/157/157 27/158/158 31/159/159
f 30/161/161 29/162/162 32/163/163
f 29/165/165 31/166/166 32/167/167
f 26/169/169 30/170/170 28/171/171
f 30/173/173 32/174/174 28/175/175
f 25/177/177 29/178/178 26/179/179
f 29/181/181 30/182/182 26/183/183
f 27/185/185 28/186/186 31/187/187
f 28/189/189 32/190/190 31/191/191
f 33/193/193 34/194/194 35/195/195
f 34/197/197 36/198/198 35/199/199
f 37/201/201 33/202/202 39/203/203
f 33/205/205 35/206/206 39/207/207
f 38/209/209 37/210/210 40/211/211
f 37/213/213 39/214/214 40/215/215
f 34/217/217 38/218/218 36/219/219
f 38/221/221 40/222/222 36/223/223
f 33/225/225 37/226/226 34/227/227
f 37/229/229 38/230/230 34/231/231
f 35/233/233 36/234/234 39/235/235
f 36/237/237 40/238/238 39/239/239
# 60 elements
